<svg version="1.1" xmlns="http://www.w3.org/2000/svg" xmlns:xlink="http://www.w3.org/1999/xlink" x="0px" y="0px" width="314.065px" height="314.064px" viewBox="0 0 314.065 314.064" enable-background="new 0 0 314.065 314.064" xml:space="preserve"><path d="M293.004,78.525C249.64,3.436,153.62-22.295,78.531,21.061C3.436,64.411-22.296,160.443,21.068,235.542 c43.35,75.087,139.375,100.822,214.465,57.467C310.629,249.648,336.365,153.621,293.004,78.525z M219.836,265.802 c-60.075,34.685-136.894,14.114-171.576-45.969C13.57,159.762,34.155,82.936,94.232,48.253 c60.071-34.683,136.894-14.099,171.578,45.979C300.495,154.308,279.908,231.118,219.836,265.802z M211.986,141.328h-65.491 l17.599-17.603c6.124-6.129,6.124-16.076,0-22.197c-6.129-6.133-16.078-6.133-22.207,0l-44.402,44.4 c-6.129,6.131-6.129,16.078,0,22.213l44.402,44.402c6.129,6.128,16.078,6.128,22.207,0c6.124-6.131,6.124-16.077,0-22.201 l-17.606-17.601h65.499c8.669,0,15.697-7.041,15.697-15.701v-0.008C227.683,148.353,220.655,141.328,211.986,141.328z"/></svg>