<svg version="1.1" xmlns="http://www.w3.org/2000/svg" xmlns:xlink="http://www.w3.org/1999/xlink" x="0px" y="0px" width="314.065px" height="314.064px" viewBox="0 0 314.065 314.064" enable-background="new 0 0 314.065 314.064" xml:space="preserve"><path d="M216.545,145.893l-44.374-44.368c-6.131-6.133-16.076-6.133-22.205,0h0.008c-6.129,6.121-6.129,16.068,0,22.197l17.589,17.603h-65.485c-8.666,0-15.701,7.033-15.701,15.701v0.008c0,8.668,7.035,15.701,15.701,15.701h65.493l-17.597,17.601 c-6.129,6.132-6.129,16.069,0,22.201c6.122,6.136,16.066,6.136,22.197,0l44.41-44.402c6.128-6.127,6.128-16.078,0-22.209 C216.57,145.909,216.554,145.9,216.545,145.893z M235.533,21.057C160.438-22.291,64.414,3.433,21.063,78.521 c-43.356,75.096-17.633,171.119,57.464,214.483c75.087,43.353,171.119,17.625,214.476-57.47 C336.364,160.443,310.62,64.408,235.533,21.057z M265.801,219.83c-34.688,60.079-111.503,80.657-171.574,45.973 C34.158,231.118,13.565,154.304,48.25,94.229C82.932,34.151,159.756,13.567,219.828,48.25 C279.899,82.934,300.485,159.763,265.801,219.83z"/></svg>