<svg xmlns="http://www.w3.org/2000/svg" width="24" height="24" viewBox="0 0 24 24"><path d="M12 2c5.514 0 10 4.486 10 10s-4.486 10-10 10S2 17.514 2 12 6.486 2 12 2zm0-2C5.383 0 0 5.383 0 12s5.383 12 12 12 12-5.383 12-12S18.617 0 12 0zm8.02 9.593a8.95 8.95 0 0 0-.515-1.242L17.05 9.458c.218.393.39.81.518 1.242l2.453-1.107zM7.45 8.69c.27-.355.58-.675.92-.958l-1.89-1.968a8.743 8.743 0 0 0-.92.957l1.89 1.97zm1.715-1.515c.38-.22.78-.396 1.198-.523l-1.033-2.57c-.41.143-.812.32-1.198.525l1.033 2.568zm-2.76 3.616c.122-.434.29-.853.5-1.25l-2.47-1.066a8.965 8.965 0 0 0-.5 1.25l2.47 1.067zm9.435-6.2a8.296 8.296 0 0 0-1.2-.518l-1.024 2.573c.417.125.82.3 1.2.52l1.024-2.574zm2.6 2.13a8.746 8.746 0 0 0-.917-.956l-1.89 1.968c.34.283.648.604.92.957l1.89-1.97zm-5.79-3.058a8.42 8.42 0 0 0-1.3 0v2.784a5.667 5.667 0 0 1 1.3 0V3.662zM12 17.444a2.343 2.343 0 0 1-1.133-4.394L12 7.74l1.133 5.31A2.343 2.343 0 0 1 12 17.444z"/></svg>