<svg version="1.1" xmlns="http://www.w3.org/2000/svg" xmlns:xlink="http://www.w3.org/1999/xlink" x="0px" y="0px" width="512px" height="512px" viewBox="0 0 512 512" enable-background="new 0 0 512 512" xml:space="preserve"><path id="fullscreen-icon" d="M157.943,426.942L192.94,462H50V319.062l35.058,34.997l57.253-57.254l72.884,72.886L157.943,426.942z M319.062,50l34.997,35.058l-56.08,56.079l72.885,72.885l56.08-56.08L462,192.938V50H319.062z M85.058,157.943L50,192.94V50h142.938 L157.94,85.058l57.254,57.253l-72.886,72.884L85.058,157.943z M462,319.062l-35.058,34.997l-56.079-56.08l-72.885,72.885 l56.08,56.08L319.062,462H462V319.062z"/></svg>