<svg xmlns="http://www.w3.org/2000/svg" width="24" height="24" viewBox="0 0 24 24"><path d="M16.677 17.868l-.343.195v-1.717l.343-.195v1.72zm2.823-3.325l-.342.195v1.717l.342-.195v-1.717zM23 6.94v11.51L13.25 24 1 17.022V5.515L10.767 0 23 6.94zM9.154 3.21l9.022 5.178 1.7-.917-9.113-5.17-1.61.91zM12 12.888L3 7.67v8.19l9 5.126v-8.098zm3.02-2.81L6.203 4.863 4.158 6.03l8.86 5.137 2.003-1.088zm5.98-.94l-2 1.077V13l-3 1.688v-2.856l-2 1.078v8.362l7-3.985v-8.15zm-4.907 7.347l-.35.2v1.712l.35-.195v-1.716zm1.405-.8l-.344.196v1.72l.344-.19v-1.72zm.574-.327l-.343.195v1.717l.34-.196v-1.717zm.584-.333l-.35.2v1.716l.35-.2v-1.71z"/></svg>